<?xml version="1.0" encoding="iso-8859-1"?>
<!-- Uploaded to: SVG Repo, www.svgrepo.com, Generator: SVG Repo Mixer Tools -->
<svg height="800px" width="800px" version="1.1" id="Layer_1" xmlns="http://www.w3.org/2000/svg" xmlns:xlink="http://www.w3.org/1999/xlink" 
	 viewBox="0 0 512 512" xml:space="preserve">
<path style="fill:#9BAAAB;" d="M446.638,161.77c-9.024,0-16.34,7.316-16.34,16.34v262.536H271.251v-88.238
	c0-9.024-7.316-16.34-16.34-16.34c-9.024,0-16.34,7.316-16.34,16.34v88.238H75.166V277.243h70.809c9.024,0,16.34-7.316,16.34-16.34
	c0-9.024-7.316-16.34-16.34-16.34H75.166V89.872h245.106c9.024,0,16.34-7.316,16.34-16.34s-7.316-16.34-16.34-16.34H58.825
	c-9.024,0-16.34,7.316-16.34,16.34v383.455c0,9.024,7.316,16.34,16.34,16.34h387.813c9.024,0,16.34-7.316,16.34-16.34V178.111
	C462.978,169.086,455.662,161.77,446.638,161.77z"/>
<g>
	<circle style="fill:#FFA354;" cx="450.995" cy="456.987" r="46.843"/>
	<circle style="fill:#FFA354;" cx="59.915" cy="456.987" r="46.843"/>
	<circle style="fill:#FFA354;" cx="59.915" cy="72.443" r="46.843"/>
</g>
<polygon style="fill:#4ACFD9;" points="498.927,51.307 455.791,8.17 259.441,204.618 216.252,247.808 194.684,312.513 
	259.389,290.945 367.229,183.103 367.214,183.087 "/>
<polygon style="fill:#0295AA;" points="477.359,29.738 194.733,312.365 194.684,312.513 259.389,290.945 367.229,183.103 
	367.214,183.087 498.927,51.307 "/>
<polygon style="fill:#FFD1A9;" points="194.684,312.513 259.389,290.945 216.252,247.808 "/>
<path d="M471.149,405.797V178.111c0-13.515-10.996-24.511-24.511-24.511c-13.515,0-24.511,10.996-24.511,24.511v232.045
	c-8.779,5.403-15.807,13.11-20.382,22.321H279.421v-80.068c0-13.515-10.996-24.511-24.511-24.511
	c-13.515,0-24.511,10.996-24.511,24.511v80.068H109.167c-5.521-11.12-14.59-19.993-25.831-25.266V285.413h62.638
	c13.515,0,24.511-10.996,24.511-24.511c0-13.515-10.996-24.511-24.511-24.511H83.336V122.221
	c10.826-5.092,19.69-13.579,25.262-24.178h211.674c13.515,0,24.511-10.996,24.511-24.511s-10.996-24.511-24.511-24.511H109.684
	c-8.988-19.113-28.302-31.591-49.77-31.591c-30.334,0-55.013,24.678-55.013,55.013c0,20.698,11.378,39.244,29.413,48.688v287.168
	c-18.034,9.444-29.413,27.991-29.413,48.688C4.902,487.322,29.58,512,59.915,512c20.916,0,40.031-12.049,49.245-30.502h292.592
	C410.965,499.951,430.08,512,450.995,512c30.334,0,55.013-24.678,55.013-55.013C506.008,434.191,491.955,413.976,471.149,405.797z
	 M446.638,169.94c4.506,0,8.17,3.665,8.17,8.17v224.003c-1.268-0.088-2.539-0.139-3.813-0.139c-4.27,0-8.456,0.479-12.528,1.43
	V178.111C438.468,173.605,442.132,169.94,446.638,169.94z M238.57,448.817c4.513,0,8.17-3.657,8.17-8.17v-88.238
	c0-4.506,3.665-8.17,8.17-8.17s8.17,3.665,8.17,8.17v88.238c0,4.513,3.657,8.17,8.17,8.17h125.348
	c-0.402,2.692-0.617,5.418-0.617,8.17c0,2.752,0.215,5.478,0.617,8.17H114.311c0.402-2.692,0.617-5.418,0.617-8.17
	c0-2.752-0.215-5.478-0.617-8.17H238.57z M145.974,252.732c4.506,0,8.17,3.665,8.17,8.17c0,4.506-3.665,8.17-8.17,8.17H75.166
	c-4.513,0-8.17,3.657-8.17,8.17v125.193c-2.342-0.304-4.705-0.461-7.081-0.461c-3.124,0-6.215,0.277-9.26,0.796V126.659
	c3.045,0.52,6.135,0.796,9.26,0.796c2.376,0,4.739-0.157,7.081-0.461v117.567c0,4.513,3.657,8.17,8.17,8.17H145.974z
	 M328.442,73.532c0,4.506-3.665,8.17-8.17,8.17H114.131c0.52-3.045,0.796-6.135,0.796-9.26c0-2.376-0.157-4.739-0.461-7.081h205.805
	C324.778,65.362,328.442,69.026,328.442,73.532z M21.242,72.443c0-21.324,17.348-38.672,38.672-38.672
	c16.499,0,31.193,10.481,36.564,26.08c1.399,4.063,2.108,8.3,2.108,12.592c0,4.954-0.934,9.794-2.777,14.388v0.002
	c-4.19,10.435-12.683,18.518-23.304,22.174c-4.063,1.399-8.3,2.108-12.592,2.108c-4.954,0-9.794-0.934-14.388-2.777
	c-0.002-0.001-0.003-0.001-0.005-0.002C30.772,102.413,21.242,88.327,21.242,72.443z M59.915,495.66
	c-21.324,0-38.672-17.348-38.672-38.672c0-15.884,9.53-29.97,24.279-35.893c0.002-0.001,0.004-0.001,0.005-0.002
	c4.594-1.843,9.434-2.777,14.388-2.777c4.292,0,8.529,0.709,12.592,2.108c10.984,3.782,19.607,12.192,23.66,23.075
	c1.607,4.315,2.422,8.853,2.422,13.49c0,4.636-0.815,9.175-2.422,13.49c0,0.001-0.001,0.003-0.001,0.004
	C90.556,485.54,75.989,495.66,59.915,495.66z M450.995,495.66c-16.075,0-30.642-10.119-36.25-25.178
	c0-0.001-0.001-0.003-0.001-0.004c-1.607-4.315-2.422-8.853-2.422-13.49c0-4.636,0.815-9.175,2.422-13.49
	c3.455-9.281,10.263-16.813,19.17-21.208c5.344-2.637,11.092-3.975,17.081-3.975c3.342,0,6.673,0.432,9.898,1.283
	c16.943,4.471,28.774,19.846,28.774,37.389C489.668,478.311,472.32,495.66,450.995,495.66z"/>
<path d="M210.474,242.03c-0.041,0.041-0.077,0.088-0.118,0.131c-0.125,0.131-0.247,0.264-0.364,0.403
	c-0.04,0.048-0.082,0.096-0.121,0.144c-0.033,0.04-0.061,0.083-0.093,0.124c-0.09,0.118-0.179,0.236-0.263,0.359
	c-0.058,0.084-0.114,0.169-0.168,0.255c-0.028,0.046-0.057,0.09-0.084,0.136c-0.053,0.089-0.106,0.18-0.157,0.272
	c-0.07,0.125-0.134,0.254-0.197,0.382c-0.024,0.049-0.051,0.097-0.074,0.146c-0.027,0.059-0.052,0.119-0.077,0.179
	c-0.069,0.159-0.131,0.32-0.188,0.484c-0.022,0.061-0.049,0.118-0.07,0.179l-10.784,32.353l-10.125,30.374l-12.097,12.097
	c-3.191,3.192-3.191,8.364,0,11.555c1.596,1.595,3.687,2.392,5.778,2.392c2.09,0,4.182-0.797,5.778-2.392l11.9-11.9l63.022-21.007
	c0.065-0.022,0.125-0.05,0.188-0.074c0.157-0.057,0.314-0.115,0.467-0.183c0.062-0.026,0.124-0.051,0.184-0.08
	c0.051-0.024,0.1-0.052,0.151-0.076c0.126-0.061,0.251-0.124,0.375-0.193c0.091-0.051,0.183-0.102,0.272-0.157
	c0.048-0.028,0.095-0.058,0.142-0.088c0.085-0.054,0.17-0.11,0.254-0.168c0.12-0.083,0.236-0.168,0.351-0.256
	c0.044-0.034,0.089-0.064,0.132-0.099c0.05-0.04,0.099-0.083,0.148-0.125c0.132-0.11,0.257-0.225,0.38-0.343
	c0.048-0.046,0.099-0.086,0.147-0.133l107.841-107.841c0.146-0.146,0.284-0.295,0.416-0.449L504.706,57.081
	c3.19-3.191,3.189-8.363-0.001-11.553L461.569,2.392C460.036,0.861,457.958,0,455.79,0c-2.167,0-4.245,0.862-5.778,2.394
	L253.664,198.84L210.474,242.03z M207.603,299.594l5.617-16.849l6.604-19.811l24.44,24.44L207.603,299.594z M455.792,19.726
	l31.582,31.581L361.435,177.312c-0.145,0.145-0.282,0.293-0.414,0.446L259.388,279.39l-31.581-31.582l37.413-37.414L455.792,19.726z
	"/>
</svg>